<?xml version="1.0" encoding="UTF-8"?>
<svg id="Layer_1" data-name="Layer 1" xmlns="http://www.w3.org/2000/svg" xmlns:xlink="http://www.w3.org/1999/xlink" viewBox="0 0 2200 2200">
  <defs>
    <style>
      .cls-1 {
        fill: url(#linear-gradient-13);
      }

      .cls-2 {
        fill: url(#linear-gradient-2);
      }

      .cls-3 {
        fill: url(#linear-gradient-10);
      }

      .cls-4 {
        fill: url(#linear-gradient-12);
      }

      .cls-5 {
        fill: url(#linear-gradient-4);
      }

      .cls-6 {
        fill: url(#linear-gradient-3);
      }

      .cls-7 {
        fill: url(#linear-gradient-5);
      }

      .cls-8 {
        fill: url(#linear-gradient-8);
      }

      .cls-9 {
        fill: url(#linear-gradient-14);
      }

      .cls-10 {
        fill: url(#linear-gradient-7);
      }

      .cls-11 {
        fill: url(#linear-gradient-9);
      }

      .cls-12 {
        fill: url(#linear-gradient-11);
      }

      .cls-13 {
        fill: url(#linear-gradient-6);
      }

      .cls-14 {
        fill: url(#linear-gradient);
      }
    </style>
    <linearGradient id="linear-gradient" x1="360" y1="1172" x2="660" y2="1172" gradientUnits="userSpaceOnUse">
      <stop offset="0" stop-color="#004"/>
      <stop offset="1" stop-color="blue"/>
    </linearGradient>
    <linearGradient id="linear-gradient-2" x1="493.88" y1="1031.54" x2="1688.23" y2="1698.6" gradientUnits="userSpaceOnUse">
      <stop offset="0" stop-color="#000074"/>
      <stop offset="1" stop-color="#0f78ff"/>
    </linearGradient>
    <linearGradient id="linear-gradient-3" x1="519.82" y1="985.09" x2="1714.17" y2="1652.15" xlink:href="#linear-gradient-2"/>
    <linearGradient id="linear-gradient-4" x1="542.52" y1="944.45" x2="1736.87" y2="1611.5" xlink:href="#linear-gradient-2"/>
    <linearGradient id="linear-gradient-5" x1="569.35" y1="896.41" x2="1763.7" y2="1563.47" xlink:href="#linear-gradient-2"/>
    <linearGradient id="linear-gradient-6" x1="591.35" y1="857.02" x2="1785.7" y2="1524.08" xlink:href="#linear-gradient-2"/>
    <linearGradient id="linear-gradient-7" x1="618.13" y1="809.06" x2="1812.49" y2="1476.12" xlink:href="#linear-gradient-2"/>
    <linearGradient id="linear-gradient-8" x1="646.02" y1="759.13" x2="1840.37" y2="1426.19" xlink:href="#linear-gradient-2"/>
    <linearGradient id="linear-gradient-9" x1="670.66" y1="715.02" x2="1865.01" y2="1382.08" xlink:href="#linear-gradient-2"/>
    <linearGradient id="linear-gradient-10" x1="694.21" y1="672.85" x2="1888.56" y2="1339.91" xlink:href="#linear-gradient-2"/>
    <linearGradient id="linear-gradient-11" x1="711.96" y1="641.06" x2="1906.32" y2="1308.12" xlink:href="#linear-gradient-2"/>
    <linearGradient id="linear-gradient-12" x1="729.58" y1="609.52" x2="1923.93" y2="1276.58" xlink:href="#linear-gradient-2"/>
    <linearGradient id="linear-gradient-13" x1="743.92" y1="583.85" x2="1938.27" y2="1250.91" xlink:href="#linear-gradient-2"/>
    <linearGradient id="linear-gradient-14" x1="762.62" y1="550.36" x2="1956.98" y2="1217.42" xlink:href="#linear-gradient-2"/>
  </defs>
  <path class="cls-14" d="M425.47,1057.68l-13.89,14.74v150.53c-1.12.14-2.18.25-3.16.32-.98.07-2.04.11-3.16.11-4.63,0-9.62-.7-14.95-2.11-5.34-1.4-10.32-3.79-14.95-7.16-4.77-3.37-8.53-7.51-11.26-12.42-2.74-4.91-4.11-10.38-4.11-16.42v-127.58h65.47ZM360,1212c5.47,8.14,12.66,13.97,21.58,17.47,8.91,3.51,19.75,5.26,32.53,5.26h131.79c12.35,0,23.19-2.98,32.53-8.95,9.33-5.96,16.66-13.65,22-23.05,3.51-6.32,5.79-12.11,6.84-17.37s1.58-9.86,1.58-13.79c0-3.23-.42-7.51-1.26-12.84-.84-5.33-3.3-11.37-7.37-18.11,5.33,3.79,10,8.42,14,13.89s7.26,11.58,9.79,18.32c2.38,6.74,3.96,12.98,4.74,18.74.77,5.76,1.16,10.81,1.16,15.16,0,1.4-.04,2.74-.11,4-.07,1.26-.18,2.6-.32,4-.98,10.67-3.55,20.39-7.68,29.16-4.14,8.77-9.76,16.32-16.84,22.63-7.09,6.32-15.58,11.19-25.47,14.63-9.89,3.44-21.09,5.16-33.58,5.16h-108.21c-12.07,0-22.84-1.82-32.32-5.47-9.47-3.65-17.51-8.74-24.11-15.26-6.6-6.53-11.72-14.35-15.37-23.47-3.65-9.12-5.62-19.16-5.89-30.11ZM544.42,1057.68c15.44,0,30.07,2.84,43.89,8.53,13.82,5.68,25.96,13.51,36.42,23.47,10.45,9.97,18.84,21.68,25.16,35.16,6.32,13.47,9.68,28,10.11,43.58v3.37c0,9.26-1.09,18.42-3.26,27.47-2.18,9.05-5.51,17.86-10,26.42-1.12,2.67-2.7,5.47-4.74,8.42-2.04,2.95-3.97,5.55-5.79,7.79,2.24-8.42,3.51-15.19,3.79-20.32.28-5.12.42-8.66.42-10.63,0-9.26-1.37-19.23-4.11-29.89-2.74-10.66-7.26-20.56-13.58-29.68-4.91-7.02-10.35-13.16-16.32-18.42-5.97-5.26-12.25-9.65-18.84-13.16-6.6-3.51-13.44-6.14-20.53-7.89-7.09-1.75-14.14-2.63-21.16-2.63h-51.37v65.68c0,3.09-.6,6-1.79,8.74-1.19,2.74-2.84,5.16-4.95,7.26s-4.56,3.76-7.37,4.95c-2.81,1.19-5.76,1.79-8.84,1.79h-28.63v-140h101.47Z"/>
  <g>
    <path class="cls-2" d="M724.49,1204.68v-76.49c0-1.28.86-2.14,2.14-2.14h17.54c1.28,0,2.14.86,2.14,2.14v63.12h50.6c1.28,0,2.14.86,2.14,2.14v11.23c0,1.28-.86,2.14-2.14,2.14h-70.29c-1.28,0-2.14-.86-2.14-2.14Z"/>
    <path class="cls-6" d="M809.75,1126.47h70.07c1.28,0,2.14.86,2.14,2.14v11.34c0,1.28-.86,2.14-2.14,2.14h-58.95c-11.02,0-13.27-2.67-13.27-13.48,0-1.28.86-2.14,2.14-2.14ZM807.61,1204.57v-44.61c0-1.28.86-2.14,2.14-2.14h70.07c1.28,0,2.14.86,2.14,2.14v11.13c0,1.28-.86,2.14-2.14,2.14h-50.28v17.97h50.28c1.28,0,2.14.86,2.14,2.14v11.23c0,1.28-.86,2.14-2.14,2.14h-70.07c-1.28,0-2.14-.86-2.14-2.14Z"/>
    <path class="cls-5" d="M972.04,1204.35c-.64-3.42-.21-7.17-.64-10.7-2.35-18.19-12.41-21.08-28.88-21.08s-26.85,3-29.42,21.29c-.53,3.53-.21,7.17-.75,10.7-.21,1.28-.64,2.14-2.14,2.14h-17.54c-1.28,0-2.14-.86-2.14-2.14,0-21.18,4.07-31.24,24.07-40.22-15.73-5.99-19.26-19.58-19.26-34.98,0-1.39.21-2.67,2.03-2.67h17.54c1.5,0,1.93.86,2.14,2.14.53,3.32.21,6.74.75,10.06,2.35,14.76,10.7,17.54,24.28,17.54s23.11-2.46,25.57-17.97c.53-3.21.21-6.53.75-9.73.21-1.28.64-2.14,2.14-2.14l17.33-.11c1.28,0,2.14.86,2.14,2.14,0,15.62-3.21,28.24-18.51,35.3,19.58,10.81,22.36,18.72,22.36,40.44,0,1.28-.96,2.03-2.14,2.03h-17.54c-1.39,0-1.93-.75-2.14-2.03Z"/>
    <path class="cls-7" d="M1072.07,1206.49h-48.14c-13.8,0-21.5-1.71-21.5-17.44v-60.44c0-1.28.86-2.14,2.14-2.14h17.44c1.28,0,2.14.86,2.14,2.14v62.37h48.57v-62.37c0-1.28.86-2.14,2.14-2.14h17.33c1.28,0,2.14.86,2.14,2.14v59.48c0,16.26-7.92,18.4-22.25,18.4Z"/>
    <path class="cls-13" d="M1162.57,1179.54c-.11-.21-.21-.43-.32-.75h-33.06v26c0,1.28-.86,2.14-2.14,2.14h-17.65c-1.28,0-2.14-.86-2.14-2.14v-39.37c0-1.28.86-2.14,2.14-2.14h54.45c7.06,0,15.4-2.67,15.4-11.13s-8.34-10.59-15.4-10.59h-38.08c-10.59,0-20.75.11-20.75-13.48,0-1.28.86-2.14,2.14-2.14h56.91c18.72,0,37.44,3.1,37.44,26.1,0,12.2-8.13,19.47-18.29,23.32l19.68,30.81h.11l.32.32-.32.32c-24.93,0-28.88-6.85-40.44-27.28Z"/>
    <path class="cls-10" d="M1283.56,1206.6c-1.28,0-2.14-.75-2.14-2.03v-24.18h-46.43v24.18c0,1.28-.86,2.03-2.14,2.03h-17.54c-1.28,0-2.14-.75-2.14-2.03v-9.31l-.21-18.72v-9.31c0-40.55,46-40.87,75.42-40.87l8.45.11h4.28c1.28,0,2.14.86,2.14,2.14v75.96c0,1.28-.86,2.03-2.14,2.03h-17.54ZM1281.42,1164.34v-22.25c-17.33,0-44.08.75-46.32,22.36l46.32-.11Z"/>
    <g>
      <path class="cls-8" d="M1352.25,1207.48v-81.03h34.15c8.64,0,16.26,1.7,22.86,5.09,6.6,3.4,11.73,8.14,15.4,14.24,3.66,6.1,5.5,13.16,5.5,21.18s-1.83,15.09-5.5,21.18c-3.67,6.1-8.8,10.84-15.4,14.24-6.6,3.4-14.22,5.09-22.86,5.09h-34.15ZM1363.83,1197.41h21.88c6.71,0,12.52-1.27,17.42-3.82,4.9-2.55,8.7-6.12,11.4-10.71,2.7-4.59,4.05-9.9,4.05-15.92s-1.35-11.42-4.05-15.98c-2.7-4.55-6.5-8.1-11.4-10.65-4.9-2.55-10.71-3.82-17.42-3.82h-21.88v60.89Z"/>
      <path class="cls-11" d="M1479.82,1208.4c-6.17,0-11.9-1.04-17.19-3.12-5.29-2.08-9.86-5-13.72-8.74-3.86-3.74-6.87-8.12-9.03-13.14-2.16-5.02-3.24-10.49-3.24-16.44s1.08-11.42,3.24-16.44c2.16-5.02,5.17-9.39,9.03-13.14,3.86-3.74,8.41-6.66,13.66-8.74,5.25-2.08,11-3.13,17.25-3.13s11.88,1.02,17.13,3.07c5.25,2.05,9.8,4.94,13.66,8.68,3.86,3.74,6.85,8.14,8.97,13.2,2.12,5.06,3.18,10.55,3.18,16.5s-1.06,11.54-3.18,16.55c-2.12,5.02-5.11,9.4-8.97,13.14-3.86,3.74-8.41,6.64-13.66,8.68-5.25,2.05-10.96,3.07-17.13,3.07ZM1479.7,1198.1c4.55,0,8.74-.77,12.56-2.31,3.82-1.54,7.14-3.72,9.96-6.54,2.82-2.82,5.02-6.12,6.6-9.9,1.58-3.78,2.37-7.91,2.37-12.39s-.79-8.58-2.37-12.33c-1.58-3.74-3.78-7.04-6.6-9.9-2.82-2.85-6.14-5.05-9.96-6.6-3.82-1.54-8.01-2.32-12.56-2.32s-8.62.77-12.44,2.32c-3.82,1.54-7.16,3.74-10.01,6.6s-5.08,6.16-6.66,9.9c-1.58,3.74-2.37,7.85-2.37,12.33s.79,8.61,2.37,12.39c1.58,3.78,3.8,7.08,6.66,9.9,2.85,2.82,6.19,5,10.01,6.54,3.82,1.54,7.97,2.31,12.44,2.31Z"/>
      <path class="cls-3" d="M1535.84,1207.48v-81.03h9.49l36.35,61.24h-5.09l35.89-61.24h9.49l.12,81.03h-11.11l-.12-63.55h2.66l-31.95,53.71h-5.33l-32.18-53.71h2.89v63.55h-11.11Z"/>
      <path class="cls-12" d="M1629.49,1207.48l36.7-81.03h11.46l36.81,81.03h-12.15l-32.76-74.55h4.63l-32.76,74.55h-11.92ZM1645.12,1187.22l3.13-9.26h45.61l3.36,9.26h-52.09Z"/>
      <path class="cls-4" d="M1721.87,1207.48v-81.03h11.58v81.03h-11.58Z"/>
      <path class="cls-1" d="M1753.12,1207.48v-81.03h9.49l53.6,66.56h-4.98v-66.56h11.58v81.03h-9.49l-53.6-66.56h4.98v66.56h-11.58Z"/>
      <path class="cls-9" d="M1866.1,1208.4c-6.17,0-12.08-.94-17.71-2.84-5.63-1.89-10.07-4.34-13.31-7.35l4.28-9.03c3.09,2.7,7.02,4.94,11.81,6.71,4.78,1.78,9.76,2.66,14.93,2.66,4.71,0,8.53-.54,11.46-1.62,2.93-1.08,5.09-2.56,6.48-4.46,1.39-1.89,2.08-4.03,2.08-6.42,0-2.78-.91-5.02-2.72-6.71-1.81-1.7-4.17-3.07-7.06-4.11-2.89-1.04-6.08-1.95-9.55-2.72-3.47-.77-6.96-1.68-10.48-2.72-3.51-1.04-6.71-2.37-9.61-3.99-2.89-1.62-5.23-3.8-7-6.54-1.78-2.74-2.66-6.27-2.66-10.59s1.1-8.01,3.3-11.52c2.2-3.51,5.59-6.33,10.19-8.45,4.59-2.12,10.44-3.18,17.54-3.18,4.71,0,9.38.62,14.01,1.85,4.63,1.24,8.64,3.01,12.04,5.33l-3.82,9.26c-3.47-2.32-7.14-3.99-11-5.04-3.86-1.04-7.6-1.56-11.23-1.56-4.55,0-8.3.58-11.23,1.74-2.93,1.16-5.08,2.7-6.42,4.63-1.35,1.93-2.03,4.09-2.03,6.48,0,2.86.91,5.13,2.72,6.83,1.81,1.7,4.17,3.05,7.06,4.05,2.89,1,6.08,1.91,9.55,2.72s6.96,1.72,10.48,2.72c3.51,1,6.71,2.32,9.61,3.94,2.89,1.62,5.23,3.78,7,6.48,1.77,2.7,2.66,6.17,2.66,10.42s-1.12,7.89-3.36,11.4c-2.24,3.51-5.69,6.33-10.36,8.45-4.67,2.12-10.55,3.18-17.65,3.18Z"/>
    </g>
  </g>
</svg>